<svg width="1200" height="800" viewBox="0 0 1200 800" fill="none" xmlns="http://www.w3.org/2000/svg">
  <defs>
    <linearGradient id="bg" x1="120" y1="60" x2="1080" y2="760" gradientUnits="userSpaceOnUse">
      <stop stop-color="#0B1220"/>
      <stop offset="1" stop-color="#1E293B"/>
    </linearGradient>
    <linearGradient id="phone" x1="185" y1="160" x2="635" y2="610" gradientUnits="userSpaceOnUse">
      <stop stop-color="#0F172A"/>
      <stop offset="1" stop-color="#1F2937"/>
    </linearGradient>
    <linearGradient id="cta" x1="250" y1="470" x2="430" y2="520" gradientUnits="userSpaceOnUse">
      <stop stop-color="#F59E0B"/>
      <stop offset="1" stop-color="#F97316"/>
    </linearGradient>
    <filter id="shadow" x="90" y="100" width="1020" height="600" filterUnits="userSpaceOnUse" color-interpolation-filters="sRGB">
      <feDropShadow dx="0" dy="18" stdDeviation="22" flood-color="#020617" flood-opacity="0.35"/>
    </filter>
  </defs>

  <rect width="1200" height="800" rx="36" fill="#E2E8F0"/>
  <rect x="48" y="46" width="1104" height="708" rx="34" fill="url(#bg)"/>
  <circle cx="185" cy="135" r="94" fill="#1D4ED8" fill-opacity="0.22"/>
  <circle cx="1040" cy="690" r="120" fill="#F59E0B" fill-opacity="0.16"/>
  <path d="M1098 162C1012 117 935 126 866 170" stroke="#38BDF8" stroke-opacity="0.35" stroke-width="2" stroke-linecap="round" stroke-dasharray="8 8"/>
  <path d="M236 663C367 723 485 727 604 687" stroke="#A78BFA" stroke-opacity="0.34" stroke-width="2" stroke-linecap="round" stroke-dasharray="8 8"/>

  <g filter="url(#shadow)">
    <rect x="108" y="122" width="984" height="556" rx="28" fill="#F8FAFC"/>
  </g>

  <rect x="160" y="166" width="500" height="468" rx="34" fill="url(#phone)"/>
  <rect x="188" y="204" width="444" height="392" rx="20" fill="#F8FAFC"/>
  <rect x="298" y="183" width="220" height="10" rx="5" fill="#334155"/>

  <rect x="224" y="242" width="172" height="40" rx="12" fill="#DBEAFE"/>
  <circle cx="245" cy="262" r="8" fill="#1D4ED8"/>
  <rect x="262" y="257" width="112" height="10" rx="5" fill="#1E3A8A" fill-opacity="0.88"/>

  <rect x="224" y="306" width="372" height="74" rx="14" fill="#EFF6FF" stroke="#BFDBFE"/>
  <rect x="246" y="330" width="178" height="11" rx="5.5" fill="#1E293B"/>
  <rect x="246" y="350" width="126" height="9" rx="4.5" fill="#64748B"/>
  <circle cx="553" cy="343" r="18" fill="#2563EB"/>
  <path d="M553 334L559.8 347.6H546.2L553 334Z" fill="white"/>

  <rect x="224" y="400" width="372" height="74" rx="14" fill="#F8FAFC" stroke="#CBD5E1"/>
  <rect x="246" y="424" width="206" height="11" rx="5.5" fill="#0F172A"/>
  <rect x="246" y="444" width="112" height="9" rx="4.5" fill="#64748B"/>
  <circle cx="553" cy="437" r="18" fill="#0891B2"/>
  <path d="M545 437L550.5 442.5L561 432" stroke="white" stroke-width="3.2" stroke-linecap="round" stroke-linejoin="round"/>

  <rect x="224" y="492" width="182" height="52" rx="12" fill="url(#cta)"/>
  <rect x="250" y="513" width="132" height="10" rx="5" fill="white" fill-opacity="0.95"/>

  <rect x="720" y="178" width="318" height="146" rx="18" fill="#0F172A"/>
  <rect x="742" y="202" width="274" height="101" rx="12" fill="#1E293B"/>
  <circle cx="780" cy="240" r="24" fill="#2563EB"/>
  <path d="M780 229C784.9 229 789 233.1 789 238C789 242.9 784.9 247 780 247C775.1 247 771 242.9 771 238C771 233.1 775.1 229 780 229ZM780 251C786.7 251 792.4 253.8 792.4 257.4V260H767.6V257.4C767.6 253.8 773.3 251 780 251Z" fill="white"/>
  <rect x="820" y="228" width="174" height="12" rx="6" fill="#F8FAFC"/>
  <rect x="820" y="250" width="108" height="10" rx="5" fill="#94A3B8"/>
  <rect x="820" y="268" width="144" height="10" rx="5" fill="#94A3B8"/>

  <rect x="720" y="344" width="318" height="146" rx="18" fill="#FFF7ED" stroke="#FDBA74"/>
  <circle cx="780" cy="417" r="24" fill="#F59E0B"/>
  <path d="M770 418L776 424L790 410" stroke="white" stroke-width="4" stroke-linecap="round" stroke-linejoin="round"/>
  <rect x="820" y="396" width="174" height="12" rx="6" fill="#1E293B"/>
  <rect x="820" y="418" width="122" height="10" rx="5" fill="#64748B"/>
  <rect x="820" y="436" width="150" height="10" rx="5" fill="#64748B"/>

  <rect x="720" y="510" width="318" height="120" rx="18" fill="#ECFEFF" stroke="#67E8F9"/>
  <rect x="748" y="542" width="126" height="12" rx="6" fill="#0F172A"/>
  <rect x="748" y="563" width="222" height="10" rx="5" fill="#475569"/>
  <rect x="748" y="582" width="182" height="10" rx="5" fill="#475569"/>
  <rect x="944" y="548" width="72" height="34" rx="10" fill="#2563EB"/>

  <text x="114" y="92" fill="#F8FAFC" font-family="Arial, sans-serif" font-size="34" font-weight="700">QuickServe</text>
  <text x="114" y="720" fill="#CBD5E1" font-family="Arial, sans-serif" font-size="24" font-weight="500">Find trusted local professionals. Book fast. Track clearly.</text>
</svg>
